PathFileType	4	(X/Y/Z)	C:\Users\WrightLab\Desktop\Jo\P1_boxCal15.trc
DataRate	CameraRate	NumFrames	NumMarkers	Units	OrigDataRate	OrigDataStartFrame	OrigNumFrames
100.00	100.00	       20	19	mm	100.00	191	       507
Frame#	Time	Headset_Front			Headset_Back			Headset_Left			Headset_Right			Left_Shoulder			Right_Shoulder			Sternum			C7			Left Elbow			Right Elbow			Left Wrist			Right Wrist			Left ASIS			Right ASIS			S2			Left Knee			Right Knee			Left Ankle			Right Ankle			
		X1	Y1	Z1	X2	Y2	Z2	X3	Y3	Z3	X4	Y4	Z4	X5	Y5	Z5	X6	Y6	Z6	X7	Y7	Z7	X8	Y8	Z8	X9	Y9	Z9	X10	Y10	Z10	X11	Y11	Z11	X12	Y12	Z12	X13	Y13	Z13	X14	Y14	Z14	X15	Y15	Z15	X16	Y16	Z16	X17	Y17	Z17	X18	Y18	Z18	X19	Y19	Z19	

191	1.900	-549.95746	859.71381	108.64300	-489.88406	921.09955	-184.31204							-561.41876	1428.35498	-10.16971	-709.61322	1491.21997	-71.31498	-732.11682	1247.45776	-108.33480	-729.18652	1418.07629	142.82330	-632.69861	1148.84314	123.61304				-589.32098	1385.60449	191.30748	-848.34717	1243.54211	90.62815				-882.26630	429.37756	-16.74095	-966.39203	127.99580	-198.34236	-734.80206	862.25330	-163.10094	-490.43042	449.78046	78.86781	-520.69464	1238.47205	-103.18720	-376.37827	750.61353	-167.64905	
192	1.910	-542.96155	860.92657	118.75401	-483.97714	921.52045	-176.85670							-554.83173	1430.41809	-2.50504	-703.18201	1492.42529	-63.33601	-725.35120	1248.31409	-99.64137	-723.35480	1419.99792	150.12253	-624.87732	1150.92688	132.39944				-582.30560	1387.35791	199.05267	-841.38434	1245.53296	99.14236				-875.80975	429.25806	-2.19473	-964.96033	133.72415	-190.36888	-728.79712	863.36310	-152.78526	-483.98770	450.68970	85.35680	-513.66638	1239.24146	-95.46302	-371.90796	750.24866	-158.30142	
193	1.920	-535.16376	863.48596	128.16762	-478.44144	922.13647	-167.93228							-547.90845	1432.93823	5.22096	-696.92120	1493.97742	-55.48138	-718.82996	1249.52185	-91.00697	-716.58136	1421.27185	158.65244							-575.92664	1389.95642	207.45723	-834.45172	1247.59729	107.94412				-870.23889	429.46396	11.51989	-964.51056	139.92456	-183.21889	-723.09167	865.49640	-143.15820	-476.84250	451.86777	91.43835	-507.13394	1240.72412	-87.45783	-367.00861	750.66138	-149.21043	
194	1.930	-527.94672	866.16754	137.32558	-473.42575	923.71588	-158.27855							-541.46497	1434.68323	13.69353	-690.51184	1495.55444	-47.63398	-711.91602	1251.36768	-81.89619	-709.84088	1423.54163	166.66589	-610.19794	1155.56384	151.93645				-570.00330	1392.94165	215.62276	-827.19073	1249.88684	116.97220				-863.87268	429.97775	27.97526	-962.45441	144.64549	-171.63795	-717.63849	867.63519	-134.11983	-470.74216	453.14392	98.00347	-500.96121	1241.97156	-79.80241	-362.46780	751.45221	-140.47009	
195	1.940	-519.67322	869.82141	147.21190	-467.95224	924.55286	-148.30061							-535.32825	1437.39307	22.01216	-684.28534	1497.51135	-39.87264	-705.51849	1253.14050	-74.11361	-703.50592	1425.81580	174.19737	-602.56244	1157.81580	160.15952				-562.96124	1395.49182	223.28349	-820.05627	1252.78638	125.83041				-857.25513	430.98489	45.86543	-959.45209	151.00636	-159.66542	-712.38580	869.09497	-123.79613	-464.79269	455.18741	104.47602	-494.32446	1243.89819	-71.56151	-357.27386	752.38470	-130.30377	
196	1.950	-511.86963	872.39777	156.13899	-461.74182	927.35107	-141.32552							-528.53528	1439.31531	30.72768	-677.50964	1499.25171	-31.72488	-698.95679	1255.05273	-65.93612	-697.07013	1428.00098	182.35384	-595.90082	1160.54016	168.51366				-555.93909	1397.86108	231.54210	-813.01379	1255.63269	135.16327				-851.81085	431.35233	62.90765	-955.93054	156.66664	-148.47035	-707.09808	872.42914	-115.60406	-459.13165	457.09888	109.46825	-488.09097	1245.94482	-63.08287	-351.04614	754.51141	-120.45557	
197	1.960	-503.59570	874.98572	164.90765	-455.61392	929.04413	-130.84895							-521.99744	1441.71680	37.06091	-671.28772	1500.60596	-24.44202	-693.20288	1257.23584	-57.81241	-690.42780	1430.42139	190.22174	-589.42218	1163.49548	176.89256				-549.56024	1400.65588	239.35223	-806.20416	1258.38672	144.10825				-844.92554	431.49506	82.62468	-950.91998	162.56677	-133.48067	-701.58057	873.91064	-106.16422	-453.66144	459.00833	113.21249	-481.92990	1247.68457	-54.74252	-344.54855	756.29254	-110.27600	
198	1.970	-495.69992	878.32617	173.67566	-450.07693	932.42853	-123.54556							-515.51141	1443.10376	43.73460	-665.26648	1502.27954	-17.11474	-687.24921	1259.24792	-48.74493	-683.71515	1433.12219	197.99484	-582.26251	1165.71094	184.36937				-543.53644	1403.41895	247.18161	-800.15466	1261.33325	152.66431				-839.46259	432.29272	102.05325	-945.73981	168.51138	-119.21325	-696.84259	876.51538	-97.47447	-447.83273	460.93680	117.99522	-475.87003	1250.21960	-46.77407	-337.98666	758.46216	-100.09084	
199	1.980	-487.28894	881.46271	181.05261	-442.34821	934.29095	-114.38763							-509.29071	1444.39148	52.54336	-659.10083	1503.99866	-9.27107	-681.31433	1261.17065	-40.63373	-676.62915	1434.98425	207.60857	-575.28369	1167.38013	191.71690				-536.78693	1405.32520	254.62007	-793.63019	1263.78467	161.53673				-832.44995	432.79221	121.40473	-940.18585	175.22806	-104.62926	-692.50793	878.62604	-88.79875	-442.71887	460.61954	121.85072	-470.06308	1252.20605	-38.77025	-331.25705	760.86646	-90.05258	
200	1.990	-479.00220	884.10046	188.86772	-435.24667	935.60559	-104.31906							-503.92810	1445.92859	60.09447	-653.36414	1506.46741	-1.81583	-676.17407	1263.27051	-32.95765	-670.50793	1437.45325	215.28035	-570.36127	1170.44299	200.05760				-530.54932	1407.36182	262.99713	-787.79321	1266.55457	169.77855				-826.19153	434.12103	141.08086	-934.14105	182.49101	-88.99670	-687.83685	880.54254	-80.57504	-438.01227	460.60776	125.23315	-465.15997	1254.55054	-31.20631	-324.76782	763.34277	-80.15446	
201	2.000	-471.63977	886.39624	196.34283	-428.98380	938.03186	-95.26190							-498.02472	1447.37720	67.59926	-647.47284	1508.37097	5.10915	-670.99170	1265.32947	-24.81674	-664.45587	1439.66968	223.25182	-564.88275	1172.24634	207.98924				-524.84546	1409.41321	270.65515	-782.20056	1268.71033	178.19612				-819.96167	435.69763	161.03354	-926.65015	189.00320	-72.29719	-683.21967	882.45245	-72.23938	-433.21347	460.55148	128.84270	-459.72589	1256.31677	-22.47186	-316.23486	765.56995	-69.74187	
202	2.010	-464.81989	888.31506	203.54198	-421.54068	939.42291	-85.41695							-491.90872	1449.33032	74.15815	-641.64032	1510.30286	13.29225	-666.34937	1267.37915	-17.31331	-658.09131	1441.91309	231.13074	-558.84625	1174.27808	215.22452				-518.24829	1410.65027	277.62598	-776.92407	1270.86292	186.79849				-812.57843	438.02243	180.25513	-919.23956	195.17830	-54.90741	-678.09930	883.48846	-64.13593	-430.26895	458.97473	131.51471	-454.81412	1257.92676	-14.45224	-308.72299	768.49213	-60.09775	
203	2.020	-458.07242	889.56372	210.46776	-413.88287	941.52917	-77.12978							-486.92517	1450.20203	81.44598	-635.97784	1512.16858	21.34603	-661.22736	1268.97876	-9.01985	-652.16016	1444.13586	238.85896	-555.67542	1176.69519	224.15262				-513.11230	1412.59485	285.53125	-772.03925	1272.55298	195.36296				-803.97034	440.49918	200.99408	-910.96661	200.86354	-38.35398	-673.61334	885.32861	-56.11493	-427.07074	456.98676	133.78661	-449.44873	1259.66248	-6.28879	-300.12170	771.33588	-49.34140	
204	2.030	-450.39325	891.89258	217.80052	-406.49002	943.21423	-67.48001							-481.40909	1450.95911	90.30143	-630.49103	1513.76440	29.00121	-656.69531	1270.63293	-1.16937	-646.49542	1446.22937	246.52116	-549.56775	1177.08008	231.07504				-506.88358	1413.92993	293.28027	-767.35095	1274.31396	203.09940				-796.92926	444.20068	219.88812	-902.32452	204.38078	-20.30103	-668.51227	886.45660	-47.68678	-423.34064	455.67661	134.57671	-445.11252	1261.67114	1.17687	-291.31976	773.87445	-38.64177	
205	2.040	-443.65186	893.57892	224.95224	-399.29407	944.91248	-59.12034							-475.81082	1452.73645	96.16606	-625.10779	1515.61475	37.18588	-652.41870	1272.16431	6.21102	-640.96521	1448.10425	254.69797	-545.62384	1178.35400	239.08293				-501.13101	1414.63806	300.37207	-762.72601	1275.90820	211.08804				-788.26654	448.28812	238.91562	-893.35486	208.18195	-3.73927	-664.16772	888.35138	-39.73616	-421.29904	454.11658	135.43007	-440.43414	1263.39990	9.12648	-283.14972	776.71204	-28.03732	
206	2.050	-437.69354	895.35095	232.07935	-391.60785	947.25928	-50.73212							-470.62067	1453.20996	104.86592	-619.97699	1516.96057	44.77584	-647.44507	1273.50232	14.39631	-635.08344	1449.05090	262.31277	-541.53467	1179.88379	247.02187				-495.01154	1415.10547	307.41953	-758.62195	1277.29700	218.86101				-778.20209	452.66464	257.94937	-885.08032	212.07257	11.50128	-659.10370	889.80566	-31.53118	-419.57288	453.52875	136.58286	-435.75864	1265.08521	16.62787	-274.35431	779.46667	-17.07868	
207	2.060	-432.72092	896.61688	238.17908	-383.85916	948.81873	-41.37803							-465.90240	1454.09155	112.56813	-614.88580	1518.75073	52.90277	-642.89923	1274.99023	21.72516	-630.14282	1451.10071	270.42630	-537.67126	1181.07068	254.64279				-490.99503	1417.43372	315.86496	-754.50690	1278.36255	225.94675				-767.78925	456.35443	277.18399	-875.66418	214.65215	30.85112	-654.62805	891.30481	-24.11920	-416.55209	452.45676	137.13965	-431.05576	1267.18152	24.07425	-265.46472	782.60150	-7.51742	
208	2.070	-427.53049	898.41595	244.58138	-376.87488	950.38629	-32.78103							-460.71530	1455.48120	118.95217				-638.51721	1276.73096	29.79481	-624.51050	1452.32495	278.37973	-534.47961	1182.32617	262.91907	-839.16040	1004.77362	253.12134	-485.60641	1418.27002	323.34036	-749.89886	1279.50134	235.01315				-757.20349	459.76617	295.39359	-866.07068	216.41559	51.38744	-650.39294	892.84894	-16.49821	-414.91714	451.69379	137.86786	-426.99881	1268.23853	32.39528	-257.10983	785.62213	3.87324	
209	2.080	-423.52353	898.90253	250.22749	-369.77570	951.73999	-24.38347							-456.35229	1456.57910	127.60838				-633.89587	1278.23022	37.66309	-618.95544	1453.56042	286.13141	-529.93219	1183.15137	270.79456	-833.39240	1005.53583	261.13251	-480.09076	1419.03979	330.67395	-745.74371	1280.62817	242.39456				-746.30798	462.92120	313.30817	-856.55353	217.77957	72.27042	-645.73462	895.24390	-9.35263	-412.41235	451.48410	138.40060	-422.24167	1270.11169	40.27185	-248.79526	788.63116	13.76590	
210	2.090	-419.89325	899.64081	255.33839	-362.49548	953.24365	-15.95691							-451.46631	1457.48254	134.68100				-629.42285	1279.51147	45.55446	-614.44977	1455.08716	294.47525	-525.74249	1183.86865	277.91443	-831.39905	1007.12769	267.06619	-475.24347	1419.91479	338.55389	-741.33337	1281.65088	249.62851				-734.71332	467.29321	330.92416	-845.67657	218.41371	93.33636	-641.97864	896.56818	-1.28897	-411.42096	451.30096	139.45776	-417.69604	1271.33154	48.40035	-240.64047	791.68890	24.71488	
